<svg width="23" height="25" viewBox="0 0 23 25" fill="none" xmlns="http://www.w3.org/2000/svg">
<path d="M11.1754 12.2266C14.3898 12.2266 16.9959 9.48964 16.9959 6.11336C16.9959 2.737 16.1403 0 11.1754 0C6.21051 0 5.35474 2.737 5.35474 6.11336C5.35474 9.48964 7.96079 12.2266 11.1754 12.2266Z" fill="#D2D2D2"/>
<path d="M0.181792 21.5609C0.180921 21.355 0.18005 21.5029 0.181792 21.5609V21.5609Z" fill="#D2D2D2"/>
<path d="M22.1691 21.7217C22.1718 21.6653 22.17 21.3307 22.1691 21.7217V21.7217Z" fill="#D2D2D2"/>
<path d="M22.1564 21.3139C22.0486 15.4323 21.1603 13.7564 14.3626 12.6956C14.3626 12.6956 13.4057 13.7499 11.1754 13.7499C8.94512 13.7499 7.98807 12.6956 7.98807 12.6956C1.26457 13.7448 0.322232 15.3959 0.198326 21.1228C0.188166 21.5905 0.183458 21.6151 0.181641 21.5608C0.182054 21.6625 0.182549 21.8506 0.182549 22.1787C0.182549 22.1787 1.80091 24.9998 11.1754 24.9998C20.5497 24.9998 22.1683 22.1787 22.1683 22.1787C22.1683 21.9679 22.1684 21.8213 22.1687 21.7216C22.1669 21.7552 22.1632 21.6901 22.1564 21.3139Z" fill="#D2D2D2"/>
</svg>
